<?xml version="1.0" encoding="utf-8"?>
<!-- Generator: Adobe Illustrator 19.2.0, SVG Export Plug-In . SVG Version: 6.00 Build 0)  -->
<!DOCTYPE svg PUBLIC "-//W3C//DTD SVG 1.1//EN" "http://www.w3.org/Graphics/SVG/1.1/DTD/svg11.dtd">
<svg version="1.1" id="Layer_1" xmlns="http://www.w3.org/2000/svg" xmlns:xlink="http://www.w3.org/1999/xlink" x="0px" y="0px"
	 viewBox="0 0 373.8 137.8" enable-background="new 0 0 373.8 137.8" xml:space="preserve">
<g>
	<path fill="#59CE8D" d="M162.6,64.6c1.4-7.1,7.8-11.9,16.3-11.9c12,0,18,5.9,18,17.9v25.6h-8.8l-1.1-5.5c-3.3,4.1-7.7,6.1-13.2,6.1
		c-7.6,0-13-4.6-13-12.8c0-8.5,7.4-13.8,18.3-13.8h6.7V68c0-4.2-2.3-6.3-7.3-6.3c-3.8,0-6.2,1.6-7.3,4.9L162.6,64.6z M176.5,87.8
		c2.6,0,4.7-0.8,6.7-2.5c2-1.6,2.9-3.7,2.9-6.4v-0.8h-6.7c-4.8,0-7.3,1.8-7.3,5.5C172,86,173.7,87.8,176.5,87.8z"/>
	<path fill="#59CE8D" d="M240,96.2h-10v-6.9c-4,5-8.2,7.6-13.5,7.6c-7.9,0-13.5-4.5-13.5-12.9V53.2h11v27.6c0,4.7,2.1,7,6.2,7
		c5.4,0,9.8-6.6,9.8-17.4V53.2h10V96.2z"/>
	<path fill="#59CE8D" d="M276,57.3V36.2h10v60h-10v-4.5c-2,2.5-5.7,5.1-10.5,5.1c-12.6,0-19.6-8.6-19.6-22.1
		c0-13.5,7.1-22.1,19.7-22.1C269.7,52.7,274,54.8,276,57.3z M256.8,74.8c0,4.1,0.9,7.3,2.8,9.6c1.9,2.3,4.2,3.5,7.1,3.5
		s5.3-1.1,7-3.4c1.9-2.3,2.8-5.5,2.8-9.7s-0.9-7.3-2.8-9.6c-1.8-2.3-4.2-3.5-7-3.5s-5.3,1.2-7.1,3.5S256.8,70.7,256.8,74.8z"/>
	<path fill="#59CE8D" d="M322,57.3V36.2h10v60h-10v-4.5c-2,2.5-5.7,5.1-10.5,5.1c-12.6,0-19.6-8.6-19.6-22.1
		c0-13.5,7.1-22.1,19.7-22.1C315.7,52.7,320,54.8,322,57.3z M302.8,74.8c0,4.1,0.9,7.3,2.8,9.6c1.9,2.3,4.2,3.5,7.1,3.5
		s5.3-1.1,7-3.4c1.9-2.3,2.8-5.5,2.8-9.7s-0.9-7.3-2.8-9.6c-1.8-2.3-4.2-3.5-7-3.5s-5.3,1.2-7.1,3.5S302.8,70.7,302.8,74.8z"/>
	<path fill="#59CE8D" d="M145.9,86.2h-8.7c-2.6,0-4-0.7-4-2.8c0-1.4,0.7-2.3,2-3.1c2,0.6,4.1,1,6.2,1c4.5,0,8.2-1.2,11.2-3.8
		c3-2.6,4.5-6.1,4.5-10.4c0-2.5-0.6-4.8-1.7-6.8l6.1-3.1l-4.2-7l-8.1,4.2c-2.5-1.3-5.1-1.9-7.9-1.9c-4.5,0-8.2,1.4-11.2,4
		c-3,2.6-4.5,6.1-4.5,10.4c0,3.5,1,6.4,3,8.8c-3.5,2.1-5.3,5.1-5.3,9c0,2.6,0.8,4.8,2.2,6.6c-2.3,2.1-3.5,5-3.5,8.5
		c0,4.5,1.8,8,5.3,10.4c3.7,2.5,8.3,3.7,14,3.7c6.8,0,12.5-1.7,16.5-6.4c2-2.3,3-5.4,3-8.7C160.9,91,155,86.2,145.9,86.2z
		 M141.4,61.2c3.4,0,5.9,2.5,5.9,5.9c0,3.4-2.5,5.8-5.9,5.8c-3.4,0-5.9-2.4-5.9-5.8C135.5,63.6,138,61.2,141.4,61.2z M141.5,105.3
		c-5.8,0-9.6-2.1-9.6-6.1c0-1.7,0.3-3.2,0.9-4.1c1.4,0.3,3,0.1,4.9,0.1h5.8c4.6,0,6.9,1.7,6.9,4.6
		C150.4,103.3,147.4,105.3,141.5,105.3z"/>
	<rect x="340" y="53.2" fill="#59CE8D" width="10" height="43"/>
	<g>
		<polygon fill="#59CE8D" points="24,61.4 35.8,73.2 37.3,73.2 24,59.9 		"/>
		<polygon fill="#59CE8D" points="24,64.7 32.5,73.2 34,73.2 24,63.3 		"/>
		<polygon fill="#59CE8D" points="24,63 34.2,73.2 35.6,73.2 24,61.6 		"/>
		<polygon fill="#59CE8D" points="24,59.7 37.5,73.2 38.9,73.2 24,58.3 		"/>
		<polygon fill="#59CE8D" points="24,56.4 40.8,73.2 42.2,73.2 24,55 		"/>
		<polygon fill="#59CE8D" points="24,58.1 39.2,73.2 40.6,73.2 24,56.6 		"/>
		<path fill="#59CE8D" d="M72.1,53.5L42.8,24.2h-1.4l31.3,31.3C72.3,54.8,72.1,54.2,72.1,53.5z"/>
		<path fill="#59CE8D" d="M72.1,51.9L44.5,24.2H43l29,29C72,52.8,72.1,52.3,72.1,51.9z"/>
		<path fill="#59CE8D" d="M72.3,51.3c0.1-0.2,0.1-0.5,0.2-0.7L46.1,24.2h-1.4l27.5,27.5C72.2,51.6,72.2,51.4,72.3,51.3z"/>
		<polygon fill="#59CE8D" points="24,66.3 30.9,73.2 32.3,73.2 24,64.9 		"/>
		<polygon fill="#59CE8D" points="24,54.8 42.5,73.2 43.9,73.2 24,53.3 		"/>
		<path fill="#59CE8D" d="M24,67.3c0,0.2,0,0.4,0,0.7l5.1,5.1c0.2,0,0.4,0,0.7,0h0.8L24,66.6V67.3z"/>
		<path fill="#59CE8D" d="M25,70.6l1.5,1.5c0.7,0.5,1.5,0.8,2.3,0.9l-4.8-4.8C24.2,69.2,24.5,70,25,70.6z"/>
		<polygon fill="#59CE8D" points="24,34.9 62.3,73.2 63.7,73.2 24,33.5 		"/>
		<polygon fill="#59CE8D" points="24,39.9 57.3,73.2 58.7,73.2 24,38.5 		"/>
		<polygon fill="#59CE8D" points="24,41.5 55.7,73.2 57.1,73.2 24,40.1 		"/>
		<polygon fill="#59CE8D" points="24,43.2 54,73.2 55.4,73.2 24,41.8 		"/>
		<polygon fill="#59CE8D" points="24,38.2 59,73.2 60.4,73.2 24,36.8 		"/>
		<polygon fill="#59CE8D" points="24,36.6 60.6,73.2 62.1,73.2 24,35.2 		"/>
		<path fill="#59CE8D" d="M73,49.5L47.8,24.2h-1.4l26.2,26.2C72.7,50.1,72.9,49.8,73,49.5z"/>
		<polygon fill="#59CE8D" points="24,49.8 47.4,73.2 48.8,73.2 24,48.4 		"/>
		<polygon fill="#59CE8D" points="24,53.1 44.1,73.2 45.5,73.2 24,51.7 		"/>
		<polygon fill="#59CE8D" points="24,51.4 45.8,73.2 47.2,73.2 24,50 		"/>
		<polygon fill="#59CE8D" points="24,48.1 49.1,73.2 50.5,73.2 24,46.7 		"/>
		<polygon fill="#59CE8D" points="24,44.8 52.4,73.2 53.8,73.2 24,43.4 		"/>
		<polygon fill="#59CE8D" points="24,46.5 50.7,73.2 52.1,73.2 24,45.1 		"/>
		<path fill="#59CE8D" d="M77.1,46.9L54.4,24.2H53l23,23C76.3,47,76.7,46.9,77.1,46.9z"/>
		<path fill="#59CE8D" d="M73.8,48.6L49.4,24.2H48l25.1,25.1C73.3,49.1,73.5,48.8,73.8,48.6z"/>
		<path fill="#59CE8D" d="M85.3,37L72.6,24.2h-1.4l13.7,13.7C85,37.6,85.2,37.3,85.3,37z"/>
		<path fill="#59CE8D" d="M86,36L74.2,24.2h-1.4l12.6,12.6C85.6,36.5,85.8,36.2,86,36z"/>
		<path fill="#59CE8D" d="M84.7,38.5c0-0.1,0.1-0.2,0.1-0.4L70.9,24.2h-1.4l15.1,15.1C84.6,39,84.6,38.7,84.7,38.5z"/>
		<path fill="#59CE8D" d="M90.8,45.8c-0.5,0-1,0-1.5-0.1l5.7,5.7c0.4,0,0.8,0.1,1.3,0.2c0.2,0,0.3,0.1,0.5,0.2L90.8,45.8z"/>
		<path fill="#59CE8D" d="M94.8,51.4L89,45.6c0,0-0.1,0-0.1,0c-2.3-0.6-3.9-2.3-4.3-4.4l-17-17h-1.4l27.3,27.3
			C93.9,51.4,94.3,51.3,94.8,51.4z"/>
		<path fill="#59CE8D" d="M84.5,39.5L69.3,24.2h-1.4l16.7,16.7C84.5,40.4,84.5,40,84.5,39.5z"/>
		<path fill="#59CE8D" d="M91.9,34.3c0.3,0.1,0.7,0.2,1,0.3L82.5,24.2h-1.4l9.9,9.9C91.3,34.1,91.6,34.2,91.9,34.3z"/>
		<path fill="#59CE8D" d="M109.7,28.3l-3.9-3.9c-0.5-0.2-1.1-0.3-1.7-0.3L110,30C110,29.4,109.9,28.9,109.7,28.3z"/>
		<path fill="#59CE8D" d="M106.2,24.6l3.4,3.4C109,26.4,107.8,25.2,106.2,24.6z"/>
		<path fill="#59CE8D" d="M89.1,34.1l-9.9-9.9h-1.4L88,34.5C88.4,34.3,88.7,34.2,89.1,34.1z"/>
		<path fill="#59CE8D" d="M87.9,34.5L77.5,24.2h-1.4L87,35.1C87.2,34.9,87.5,34.7,87.9,34.5z"/>
		<path fill="#59CE8D" d="M90.7,34l-9.8-9.8h-1.4l9.9,9.9C89.7,34,90.2,34,90.7,34z"/>
		<path fill="#59CE8D" d="M86.8,35.2l-11-11h-1.4l11.7,11.7C86.3,35.6,86.6,35.4,86.8,35.2z"/>
		<polygon fill="#59CE8D" points="24,33.3 63.9,73.2 65.4,73.2 24,31.8 		"/>
		<path fill="#59CE8D" d="M93.3,51.5L65.9,24.2h-1.4l27.7,27.7C92.5,51.7,92.9,51.6,93.3,51.5z"/>
		<path fill="#59CE8D" d="M79.5,47.1c0.8,0.2,1.4,0.5,2,1L57.7,24.2h-1.4L79,47C79.2,47,79.3,47,79.5,47.1z"/>
		<path fill="#59CE8D" d="M75.7,47.2l-23-23h-1.4l23.5,23.5C75.1,47.5,75.4,47.4,75.7,47.2z"/>
		<path fill="#59CE8D" d="M83.8,53.4l5.2,5.2c-0.1-0.5-0.1-1-0.1-1.5L83.8,52C83.8,52.4,83.8,52.9,83.8,53.4z"/>
		<path fill="#59CE8D" d="M74.7,47.8L51.1,24.2h-1.4l24.2,24.2C74.1,48.2,74.4,48,74.7,47.8z"/>
		<path fill="#59CE8D" d="M78.8,46.9L56,24.2h-1.4l22.7,22.7C77.8,46.8,78.2,46.8,78.8,46.9z"/>
		<path fill="#59CE8D" d="M91.1,52.6L62.6,24.2h-1.4l29.1,29.1C90.6,53.1,90.8,52.8,91.1,52.6z"/>
		<path fill="#59CE8D" d="M92,52L64.3,24.2h-1.4l28.3,28.3C91.5,52.3,91.7,52.1,92,52z"/>
		<path fill="#59CE8D" d="M89.6,54.5L59.3,24.2h-1.4l31.3,31.3C89.3,55.1,89.4,54.8,89.6,54.5z"/>
		<path fill="#59CE8D" d="M90.2,53.5L61,24.2h-1.4l30.1,30.1C89.8,54,90,53.7,90.2,53.5z"/>
		<path fill="#59CE8D" d="M82.8,49.3c0.5,0.7,0.8,1.5,0.9,2.3l5.1,5.1c0-0.3,0.1-0.7,0.2-1c0-0.1,0-0.1,0-0.2L82.8,49.3z"/>
		<polygon fill="#59CE8D" points="104,24.2 102.5,24.2 110,31.7 110,30.2 		"/>
		<path fill="#59CE8D" d="M94.5,44.2L110,59.8v-1.4L95.1,43.5C94.9,43.7,94.7,44,94.5,44.2z"/>
		<path fill="#59CE8D" d="M92.4,45.5L110,63.1v-1.4L93.4,45.1C93.1,45.2,92.8,45.4,92.4,45.5z"/>
		<path fill="#59CE8D" d="M93.6,45L110,61.4V60L94.4,44.4C94.1,44.6,93.8,44.8,93.6,45z"/>
		<path fill="#59CE8D" d="M95.2,43.3L110,58.1v-1.4L95.7,42.4C95.6,42.7,95.4,43,95.2,43.3z"/>
		<path fill="#59CE8D" d="M96,41.5c-0.1,0.3-0.2,0.5-0.2,0.7L110,56.5V55L96.1,41.1C96.1,41.3,96.1,41.4,96,41.5z"/>
		<path fill="#59CE8D" d="M96.2,40.9L110,54.8v-1.4L96.3,39.6C96.3,40.1,96.2,40.5,96.2,40.9z"/>
		<path fill="#59CE8D" d="M100.4,58.8c-0.1,0.3-0.2,0.6-0.3,0.9l9.6,9.6c0.1-0.4,0.2-0.7,0.3-1.1l-9.5-9.5
			C100.4,58.7,100.4,58.8,100.4,58.8z"/>
		<path fill="#59CE8D" d="M91.1,45.8l6.1,6.1c1.4,0.6,2.5,1.7,3,3l9.8,9.8v-1.4L92.3,45.6C91.9,45.7,91.5,45.7,91.1,45.8z"/>
		<path fill="#59CE8D" d="M99.5,60.8l9.6,9.6c0.2-0.3,0.3-0.6,0.5-0.9l-9.6-9.6C99.8,60.2,99.7,60.5,99.5,60.8z"/>
		<path fill="#59CE8D" d="M98.7,61.7l9.7,9.7c0.2-0.2,0.4-0.5,0.6-0.8l-9.6-9.6C99.2,61.2,99,61.5,98.7,61.7z"/>
		<path fill="#59CE8D" d="M96.2,39.4L110,53.1v-1.4L95.8,37.6C96.1,38.1,96.2,38.7,96.2,39.4z"/>
		<path fill="#59CE8D" d="M100.5,58.5L110,68c0-0.2,0-0.4,0-0.6v-0.7l-9.4-9.4C100.6,57.6,100.6,58.1,100.5,58.5z"/>
		<polygon fill="#59CE8D" points="24,31.6 65.6,73.2 67,73.2 24,30.2 		"/>
		<polygon fill="#59CE8D" points="91,24.2 110,43.2 110,41.8 92.4,24.2 		"/>
		<polygon fill="#59CE8D" points="95.9,24.2 110,38.3 110,36.9 97.3,24.2 		"/>
		<polygon fill="#59CE8D" points="94.3,24.2 110,39.9 110,38.5 95.7,24.2 		"/>
		<path fill="#59CE8D" d="M82.7,24.2l10.6,10.6c1,0.5,1.8,1.3,2.3,2.3L110,51.5v-1.4L84.1,24.2H82.7z"/>
		<polygon fill="#59CE8D" points="99.2,24.2 110,35 110,33.6 100.7,24.2 		"/>
		<polygon fill="#59CE8D" points="92.6,24.2 110,41.6 110,40.2 94,24.2 		"/>
		<polygon fill="#59CE8D" points="100.9,24.2 110,33.3 110,31.9 102.3,24.2 		"/>
		<polygon fill="#59CE8D" points="97.6,24.2 110,36.6 110,35.2 99,24.2 		"/>
		<polygon fill="#59CE8D" points="86,24.2 110,48.2 110,46.8 87.4,24.2 		"/>
		<polygon fill="#59CE8D" points="84.4,24.2 110,49.8 110,48.4 85.8,24.2 		"/>
		<path fill="#59CE8D" d="M97.8,62.4l9.7,9.7c0.3-0.2,0.5-0.4,0.8-0.6l-9.7-9.7C98.3,62,98.1,62.2,97.8,62.4z"/>
		<polygon fill="#59CE8D" points="87.7,24.2 110,46.5 110,45.1 89.1,24.2 		"/>
		<polygon fill="#59CE8D" points="89.3,24.2 110,44.9 110,43.5 90.7,24.2 		"/>
		<path fill="#59CE8D" d="M100.6,57l9.4,9.4V65l-9.6-9.6C100.5,55.8,100.6,56.4,100.6,57z"/>
		<path fill="#59CE8D" d="M29.9,24.2C29.8,24.2,29.8,24.2,29.9,24.2l49,49h1.4l-49-49H29.9z"/>
		<polygon fill="#59CE8D" points="36.4,24.2 85.4,73.2 86.8,73.2 37.8,24.2 		"/>
		<path fill="#59CE8D" d="M27.2,24.9l48.3,48.3h1.4L28.2,24.4C27.8,24.6,27.5,24.7,27.2,24.9z"/>
		<polygon fill="#59CE8D" points="31.5,24.2 80.5,73.2 81.9,73.2 32.9,24.2 		"/>
		<polygon fill="#59CE8D" points="34.8,24.2 83.8,73.2 85.2,73.2 36.2,24.2 		"/>
		<polygon fill="#59CE8D" points="33.1,24.2 82.1,73.2 83.5,73.2 34.5,24.2 		"/>
		<path fill="#59CE8D" d="M28.4,24.4l48.8,48.8h1.4l-49-49C29.2,24.2,28.8,24.3,28.4,24.4z"/>
		<path fill="#59CE8D" d="M96.6,62.9l9.8,9.8c0.3-0.1,0.6-0.3,0.9-0.5l-9.8-9.8C97.3,62.6,97,62.8,96.6,62.9z"/>
		<path fill="#59CE8D" d="M26.2,25.5l47.7,47.7h1.4L27,24.9C26.7,25.1,26.4,25.3,26.2,25.5z"/>
		<path fill="#59CE8D" d="M24.2,28.5l44.7,44.7h1.4L24.6,27.5C24.4,27.8,24.3,28.2,24.2,28.5z"/>
		<path fill="#59CE8D" d="M24.7,27.3l45.9,45.9H72L25.2,26.5C25,26.7,24.8,27,24.7,27.3z"/>
		<path fill="#59CE8D" d="M25.3,26.3l46.9,46.9h1.4L26,25.6C25.8,25.8,25.6,26.1,25.3,26.3z"/>
		<path fill="#59CE8D" d="M24,30l43.2,43.2h1.4L24.2,28.7C24.1,29.1,24,29.5,24,30z"/>
		<polygon fill="#59CE8D" points="38.1,24.2 87.1,73.2 88.5,73.2 39.5,24.2 		"/>
		<path fill="#59CE8D" d="M82.3,56.8l16.4,16.4h1.4L82.9,56C82.7,56.3,82.5,56.6,82.3,56.8z"/>
		<path fill="#59CE8D" d="M89,58.9l-5.3-5.3c0,0.3-0.1,0.5-0.2,0.8c0,0.1-0.1,0.3-0.1,0.4L102,73.2h1.4L93,62.8
			C90.9,62.2,89.5,60.7,89,58.9z"/>
		<path fill="#59CE8D" d="M95.2,63.1l10,10c0.4-0.1,0.8-0.2,1.1-0.3l-9.9-9.9C96,63,95.6,63.1,95.2,63.1z"/>
		<path fill="#59CE8D" d="M93.3,62.9l10.3,10.3h0.5c0.3,0,0.5,0,0.8-0.1l-10-10C94.4,63.1,93.9,63.1,93.3,62.9z"/>
		<path fill="#59CE8D" d="M81.4,57.6L97,73.2h1.4L82.2,56.9C81.9,57.2,81.7,57.4,81.4,57.6z"/>
		<path fill="#59CE8D" d="M83,55.9l17.3,17.3h1.4L83.4,54.9C83.3,55.2,83.1,55.6,83,55.9z"/>
		<path fill="#59CE8D" d="M73,56L41.2,24.2h-1.4l49,49h1.4L74.4,57.5C73.8,57.1,73.4,56.6,73,56z"/>
		<path fill="#59CE8D" d="M76.4,58.4c-0.5-0.1-1-0.3-1.4-0.6l15.4,15.4h1.4L77.1,58.5C76.9,58.5,76.7,58.5,76.4,58.4z"/>
		<path fill="#59CE8D" d="M80.3,58.2l15,15h1.4L81.3,57.7C81,57.9,80.7,58.1,80.3,58.2z"/>
		<path fill="#59CE8D" d="M79,58.5l14.7,14.7h1.4L80.2,58.3C79.8,58.4,79.4,58.5,79,58.5z"/>
		<path fill="#59CE8D" d="M77.4,58.6L92,73.2h1.4L78.8,58.6C78.4,58.6,77.9,58.6,77.4,58.6z"/>
	</g>
	<circle fill="#59CE8D" cx="345.1" cy="41.1" r="6.8"/>
</g>
</svg>
