<?xml version="1.0" encoding="UTF-8" standalone="no"?>
<svg width="135px" height="38px" viewBox="0 0 135 38" version="1.1" xmlns="http://www.w3.org/2000/svg" xmlns:xlink="http://www.w3.org/1999/xlink" xmlns:sketch="http://www.bohemiancoding.com/sketch/ns">
    <!-- Generator: Sketch 3.4.4 (17249) - http://www.bohemiancoding.com/sketch -->
    <title>new-logo-full</title>
    <desc>Created with Sketch.</desc>
    <defs></defs>
    <g id="Page-1" stroke="none" stroke-width="1" fill="none" fill-rule="evenodd" sketch:type="MSPage">
        <g id="new-logo-full" sketch:type="MSLayerGroup" fill="#59CE8D">
            <g id="Group" transform="translate(40.000000, 4.000000)" sketch:type="MSShapeGroup">
                <path d="M22.6852332,22.2109497 C23.7685259,22.2109497 24.6637241,21.8615137 25.4671387,21.1976265 C26.3059497,20.5337393 26.6767881,19.6603552 26.6767881,18.5770625 L26.6767881,18.2593186 L23.8730686,18.2593186 C21.881407,18.2593186 20.8684954,19.0121082 20.8684954,20.5148064 C20.8684954,21.4581601 21.5323826,22.2109497 22.6852332,22.2109497 L22.6852332,22.2109497 Z M16.9897149,12.6370625 C17.5490595,9.70204726 20.2186021,7.74537043 23.7475351,7.74537043 C28.6742119,7.74537043 31.2042271,10.1914223 31.2042271,15.1180991 L31.2042271,25.6678552 L27.5419405,25.6678552 L27.0879619,23.4152485 C25.7252027,25.0924588 23.9080534,25.9230381 21.6719101,25.9230381 C18.5623826,25.9230381 16.3258277,24.0437393 16.3258277,20.6543338 C16.3258277,17.1603857 19.3657973,14.9666357 23.8384954,14.9666357 L26.6767881,14.9666357 L26.6767881,14.0348064 C26.6767881,12.3226113 25.7116204,11.4492271 23.6504009,11.4492271 C22.0777332,11.4492271 21.0886936,12.1131143 20.6347149,13.4758735 L16.9897149,12.6370625 Z" id="Fill-1"></path>
                <path d="M48.902439,25.667814 L44.7865854,25.667814 L44.7865854,22.8048262 C43.1402439,24.8664573 41.4140549,25.9147652 39.2128963,25.9147652 C35.9630183,25.9147652 33.6737805,24.0630427 33.6737805,20.6036677 L33.6737805,7.96964329 L38.2012195,7.96964329 L38.2012195,19.310878 C38.2012195,21.2325701 39.0655488,22.2109085 40.7427591,22.2109085 C42.9789024,22.2109085 44.7865854,19.4853902 44.7865854,15.0480884 L44.7865854,7.96964329 L48.902439,7.96964329 L48.902439,25.667814 Z" id="Fill-3"></path>
                <path d="M55.7594512,16.8300884 C55.7594512,18.5072988 56.143872,19.8350732 56.9127134,20.7784268 C57.6811433,21.7217805 58.6594817,22.2111555 59.8477287,22.2111555 C61.035564,22.2111555 62.0139024,21.7567652 62.7477591,20.8134116 C63.516189,19.8700579 63.9006098,18.5422835 63.9006098,16.8300884 C63.9006098,15.1178933 63.516189,13.8251037 62.7477591,12.88175 C62.0139024,11.9383963 61.035564,11.4490213 59.8477287,11.4490213 C58.6594817,11.4490213 57.6811433,11.9383963 56.9127134,12.88175 C56.143872,13.8251037 55.7594512,15.152878 55.7594512,16.8300884 M63.7195122,9.63228354 L63.7195122,0.972527439 L67.8353659,0.972527439 L67.8353659,25.6676494 L63.7195122,25.6676494 L63.7195122,23.8183963 C62.8963415,24.8317195 61.3467226,25.9146006 59.355061,25.9146006 C54.1839024,25.9146006 51.2678201,22.3856677 51.2678201,16.8300884 C51.2678201,11.2745091 54.2094207,7.74557622 59.3805793,7.74557622 C61.0927744,7.74557622 62.8963415,8.61896037 63.7195122,9.63228354" id="Fill-5"></path>
                <path d="M74.6937774,16.8300884 C74.6937774,18.5072988 75.0781982,19.8350732 75.8470396,20.7784268 C76.6154695,21.7217805 77.5938079,22.2111555 78.7820549,22.2111555 C79.9698902,22.2111555 80.9482287,21.7567652 81.6820854,20.8134116 C82.4505152,19.8700579 82.834936,18.5422835 82.834936,16.8300884 C82.834936,15.1178933 82.4505152,13.8251037 81.6820854,12.88175 C80.9482287,11.9383963 79.9698902,11.4490213 78.7820549,11.4490213 C77.5938079,11.4490213 76.6154695,11.9383963 75.8470396,12.88175 C75.0781982,13.8251037 74.6937774,15.152878 74.6937774,16.8300884 M82.6526037,9.63228354 L82.6526037,0.972527439 L86.7684573,0.972527439 L86.7684573,25.6676494 L82.6526037,25.6676494 L82.6526037,23.8183963 C81.8294329,24.8317195 80.2802256,25.9146006 78.2889756,25.9146006 C73.1174055,25.9146006 70.2017348,22.3856677 70.2017348,16.8300884 C70.2017348,11.2745091 73.1429238,7.74557622 78.3140823,7.74557622 C80.0262774,7.74557622 81.8294329,8.61896037 82.6526037,9.63228354" id="Fill-7"></path>
                <path d="M8.34214177,29.4088369 C5.96605945,29.4088369 4.39380335,28.5354527 4.39380335,26.8932271 C4.39380335,26.1943552 4.53374238,25.5856204 4.77822409,25.2011997 C5.33715701,25.3057424 6.00104421,25.2563521 6.80487043,25.2563521 L9.18054116,25.2563521 C11.0676601,25.2563521 12.0110137,25.9350564 12.0110137,27.1578765 C12.0110137,28.5901936 10.7881936,29.4088369 8.34214177,29.4088369 M8.30715701,11.2431052 C9.70490091,11.2431052 10.7182241,12.2564284 10.7182241,13.6887454 C10.7182241,15.0864893 9.70490091,16.0648277 8.30715701,16.0648277 C6.90941311,16.0648277 5.89608994,15.0864893 5.89608994,13.6887454 C5.89608994,12.2564284 6.90941311,11.2431052 8.30715701,11.2431052 M10.1588796,21.5520838 L6.55997713,21.5520838 C5.47709604,21.5520838 4.91775152,21.2524497 4.91775152,20.3790655 C4.91775152,19.8201326 5.19762957,19.4254223 5.7565625,19.1113826 C6.55997713,19.3558643 7.43377287,19.5254375 8.30715701,19.5254375 C10.1588796,19.5254375 11.6965625,19.0163064 12.9193826,17.9679985 C14.1422027,16.8851174 14.7711052,15.4597973 14.7711052,13.6780442 C14.7711052,12.6297363 14.5266235,11.6900869 14.0726448,10.8862607 L16.5882546,9.63051372 L14.8760595,6.76629116 L11.5566235,8.51347104 C10.5433003,7.98952287 9.46041921,7.74504116 8.30715701,7.74504116 C6.45543445,7.74504116 4.91775152,8.30438567 3.6949314,9.38767835 C2.47211128,10.4705595 1.84320884,11.9032881 1.84320884,13.6854527 C1.84320884,15.1177698 2.26261433,16.3060168 3.06602896,17.3193399 C1.6333003,18.1927241 0.899855183,19.4155442 0.899855183,21.0227851 C0.899855183,22.1060777 1.2143064,23.0144466 1.80822409,23.7483034 C0.864870427,24.6216875 0.375495427,25.8099345 0.375495427,27.2426631 C0.375495427,29.0943857 1.10935213,30.5271143 2.57706555,31.5404375 C4.07935213,32.5533491 6.00104421,33.0427241 8.34214177,33.0427241 C11.1376296,33.0427241 13.4783155,32.3438521 15.1205412,30.4221601 C15.9243674,29.4788064 16.3437729,28.2057729 16.3437729,26.8430137 C16.3437729,23.5235777 13.9327058,21.5520838 10.1588796,21.5520838" id="Fill-9"></path>
                <path d="M90.0609756,7.96972561 L94.1768293,7.96972561 L94.1768293,25.6678963 L90.0609756,25.6678963 L90.0609756,7.96972561 Z" id="Fill-12"></path>
                <path d="M90.0920915,0.966806402 C91.1753841,-0.11648628 92.992122,-0.11648628 94.0754146,0.966806402 C95.1587073,2.05009909 95.1587073,3.86683689 94.0754146,4.95012957 C92.992122,6.03342226 91.1753841,6.03342226 90.0920915,4.95012957 C89.0087988,3.86683689 89.0087988,2.05009909 90.0920915,0.966806402" id="Fill-14"></path>
            </g>
            <path d="M35.3963415,17.7915183 C35.3963415,19.1225854 34.3175762,20.2013506 32.9865091,20.2013506 L2.40983232,20.2013506 C1.07876524,20.2013506 0,19.1225854 0,17.7915183 L0,2.4435 C0,1.11243293 1.07876524,0.0336676829 2.40983232,0.0336676829 L32.9865091,0.0336676829 C34.3175762,0.0336676829 35.3963415,1.11243293 35.3963415,2.4435 L35.3963415,17.7915183 Z M29.7450274,11.288346 C31.0950274,11.6501296 31.8115976,12.8910595 31.4407591,14.2748095 C31.0789756,15.6248095 29.8471006,16.3076296 28.4971006,15.945846 C27.1471006,15.5840625 26.4214756,14.3768826 26.7832591,13.0268826 C27.1540976,11.6431326 28.3950274,10.9265625 29.7450274,11.288346 Z M22.827471,9.4348125 C24.177471,9.79659604 24.8940412,11.0375259 24.5232027,12.4212759 C24.1614192,13.7712759 22.9295442,14.454096 21.5795442,14.0923125 C20.2295442,13.730529 19.5039192,12.5233491 19.8657027,11.1733491 C20.2365412,9.78959909 21.477471,9.07302896 22.827471,9.4348125 Z M27.9480457,4.15964634 C29.2980457,4.52142988 30.0146159,5.76235976 29.6437774,7.14610976 C29.2819939,8.49610976 28.0501189,9.17892988 26.7001189,8.81714634 C25.3501189,8.4553628 24.6244939,7.24818293 24.9862774,5.89818293 C25.3571159,4.51443293 26.5980457,3.7978628 27.9480457,4.15964634 Z" id="Fill-15" sketch:type="MSShapeGroup"></path>
        </g>
    </g>
</svg>