<?xml version="1.0" encoding="UTF-8" standalone="no"?>
<svg width="126px" height="44px" viewBox="0 0 126 44" version="1.1" xmlns="http://www.w3.org/2000/svg" xmlns:xlink="http://www.w3.org/1999/xlink" xmlns:sketch="http://www.bohemiancoding.com/sketch/ns">
    <!-- Generator: Sketch 3.4.3 (16044) - http://www.bohemiancoding.com/sketch -->
    <title>Page 1</title>
    <desc>Created with Sketch.</desc>
    <defs></defs>
    <g id="Page-1" stroke="none" stroke-width="1" fill="none" fill-rule="evenodd" sketch:type="MSPage">
        <g id="Desktop-HD-Copy" sketch:type="MSArtboardGroup" transform="translate(-250.000000, -144.000000)" fill="#59CE8D">
            <g id="Group" sketch:type="MSLayerGroup" transform="translate(250.000000, 144.000000)">
                <g id="Page-1" sketch:type="MSShapeGroup">
                    <path d="M10.533825,21.2021085 C12.390075,21.2021085 13.735575,19.9100746 13.735575,18.0643119 C13.735575,16.1726847 12.390075,14.8347864 10.533825,14.8347864 C8.677575,14.8347864 7.332075,16.1726847 7.332075,18.0643119 C7.332075,19.9100746 8.677575,21.2021085 10.533825,21.2021085 L10.533825,21.2021085 Z M8.538075,33.5687186 C7.471575,33.5687186 6.589575,33.5217356 5.847075,33.3841424 C5.52195,33.8908881 5.336325,34.5833288 5.336325,35.5062102 C5.336325,37.675261 7.424325,38.8285831 10.57995,38.8285831 C13.82895,38.8285831 15.452325,37.8598373 15.452325,35.9670915 C15.452325,34.3528881 14.2002,33.5687186 11.6937,33.5687186 L8.538075,33.5687186 Z M4.4082,12.3894305 C6.0327,10.9586847 8.074575,10.2203797 10.533825,10.2203797 C12.06495,10.2203797 13.503825,10.5436678 14.849325,11.2349898 L19.2582,8.92834576 L21.531825,12.7116 L18.190575,14.3727864 C18.793575,15.4343797 19.1187,16.6805492 19.1187,18.0643119 C19.1187,20.417939 18.282825,22.3095661 16.65945,23.7403119 C15.03495,25.1240746 12.993075,25.8165153 10.533825,25.8165153 C9.37395,25.8165153 8.214075,25.631939 7.14645,25.3086508 C6.40395,25.7236678 6.0327,26.323261 6.0327,27.0626847 C6.0327,28.2160068 6.7752,28.7697356 8.214075,28.7697356 L12.993075,28.7697356 C18.00495,28.7697356 21.2067,31.2150915 21.2067,35.597939 C21.2067,37.3978373 20.649825,38.9203119 19.5822,40.1664814 C17.40195,42.7046847 14.29245,43.6275661 10.57995,43.6275661 C7.471575,43.6275661 4.91895,42.9809898 2.9232,41.6430915 C0.9747,40.3051932 0.00045,38.4135661 0.00045,35.9670915 C0.00045,34.0754644 0.649575,32.5071254 1.902825,31.3538034 C1.1142,30.383939 0.6957,29.1847525 0.6957,27.7540068 C0.6957,25.631939 1.671075,24.0166169 3.57345,22.8632949 C2.505825,21.5253966 1.94895,19.955939 1.94895,18.0643119 C1.94895,15.7106847 2.784825,13.8190576 4.4082,12.3894305 Z M29.6301375,29.3230169 C31.0690125,29.3230169 32.3211375,28.8621356 33.3887625,27.9851186 C34.5025125,27.1081017 35.0593875,25.9547797 35.0593875,24.5240339 L35.0593875,24.0631525 L31.2073875,24.0631525 C28.5625125,24.0631525 27.2170125,25.0777627 27.2170125,27.0622373 C27.2170125,28.3084068 28.0990125,29.3230169 29.6301375,29.3230169 Z M22.0656375,16.6801017 C22.8081375,12.804 26.2888875,10.2199322 30.9756375,10.2199322 C37.5186375,10.2199322 40.8137625,13.4505763 40.8137625,19.9566102 L40.8137625,33.8445763 L36.0797625,33.8445763 L35.4767625,30.8913559 C33.6677625,33.1062712 31.2546375,34.2137288 28.2846375,34.2137288 C24.1547625,34.2137288 21.1847625,31.629661 21.1847625,27.1539661 C21.1847625,22.540678 25.2212625,19.5404746 31.1612625,19.5404746 L35.0593875,19.5404746 L35.0593875,18.5258644 C35.0593875,16.2650847 33.7138875,15.1117627 30.9756375,15.1117627 C28.8876375,15.1117627 27.5421375,15.987661 26.9380125,17.7875593 L22.0656375,16.6801017 Z M64.4662125,33.8450237 L58.7118375,33.8450237 L58.7118375,30.1076339 C56.8094625,32.8304136 54.3963375,34.2141763 51.4735875,34.2141763 C47.1580875,34.2141763 44.2803375,31.7688203 44.2803375,27.200278 L44.2803375,10.5895322 L50.0347125,10.5895322 L50.0347125,25.4932271 C50.0347125,28.0314305 51.1484625,29.3234644 53.3759625,29.3234644 C56.3459625,29.3234644 58.7118375,25.7236678 58.7118375,19.8642102 L58.7118375,10.5895322 L64.4662125,10.5895322 L64.4662125,33.8450237 Z M73.55745,22.2171661 C73.55745,24.4320814 74.0682,26.1849966 75.088575,27.4311661 C76.110075,28.6773356 77.40945,29.3227932 78.9867,29.3227932 C80.565075,29.3227932 81.863325,28.7232 82.8387,27.4770305 C83.859075,26.2319797 84.369825,24.4779458 84.369825,22.2171661 C84.369825,19.9563864 83.859075,18.2493356 82.8387,17.0031661 C81.863325,15.7569966 80.565075,15.111539 78.9867,15.111539 C77.40945,15.111539 76.110075,15.7569966 75.088575,17.0031661 C74.0682,18.2493356 73.55745,20.0022508 73.55745,22.2171661 Z M83.859075,12.7120475 L83.859075,1.17658983 L89.61345,1.17658983 L89.61345,33.8454712 L83.859075,33.8454712 L83.859075,31.4459797 C83.116575,32.783878 80.84295,34.2135051 78.198075,34.2135051 C71.32995,34.2135051 67.5252,29.5532339 67.5252,22.2171661 C67.5252,14.8810983 71.32995,10.2197085 78.198075,10.2197085 C80.4717,10.2197085 82.79145,11.3741492 83.859075,12.7120475 Z M98.7051375,22.2171661 C98.7051375,24.4320814 99.2158875,26.1849966 100.236263,27.4311661 C101.257763,28.6773356 102.556013,29.3227932 104.134388,29.3227932 C105.712763,29.3227932 107.011013,28.7232 107.986388,27.4770305 C109.006763,26.2319797 109.517513,24.4779458 109.517513,22.2171661 C109.517513,19.9563864 109.006763,18.2493356 107.986388,17.0031661 C107.011013,15.7569966 105.712763,15.111539 104.134388,15.111539 C102.556013,15.111539 101.257763,15.7569966 100.236263,17.0031661 C99.2158875,18.2493356 98.7051375,20.0022508 98.7051375,22.2171661 Z M109.006762,12.7120475 L109.006762,1.17658983 L114.761138,1.17658983 L114.761138,33.8454712 L109.006762,33.8454712 L109.006762,31.4459797 C108.264263,32.783878 105.990637,34.2135051 103.345762,34.2135051 C96.4776375,34.2135051 92.6728875,29.5532339 92.6728875,22.2171661 C92.6728875,14.8810983 96.4776375,10.2197085 103.345762,10.2197085 C105.619388,10.2197085 107.939138,11.3741492 109.006762,12.7120475 Z M118.924875,10.5890847 L124.67925,10.5890847 L124.67925,33.8445763 L118.924875,33.8445763 L118.924875,10.5890847 Z M119.156625,1.26854237 C120.594375,-0.16220339 123.0075,-0.16220339 124.446375,1.26854237 C125.88525,2.69928814 125.88525,5.09877966 124.446375,6.52840678 C123.0075,7.95915254 120.594375,7.95915254 119.156625,6.52840678 C117.71775,5.09877966 117.71775,2.69928814 119.156625,1.26854237 L119.156625,1.26854237 Z" id="Fill-1"></path>
                </g>
            </g>
        </g>
    </g>
</svg>